<?xml version="1.0" encoding="utf-8"?>
<!-- Generator: Adobe Illustrator 24.0.1, SVG Export Plug-In . SVG Version: 6.00 Build 0)  -->
<svg version="1.1" id="Layer_1" xmlns="http://www.w3.org/2000/svg" xmlns:xlink="http://www.w3.org/1999/xlink" x="0px" y="0px"
	 viewBox="0 0 93.12 36.35" style="enable-background:new 0 0 93.12 36.35;" xml:space="preserve">
<path style="opacity:0.35;fill:#7A4710;" d="M85.76,35.19H11.95c-2.39,0-4.32-1.93-4.32-4.32V1.58h73.81c2.39,0,4.32,1.93,4.32,4.32
	V35.19z"/>
<g>
	<path style="fill-rule:evenodd;clip-rule:evenodd;fill:#5D7559;" d="M16.67,20c0,0,1.3-1.9,1.59-2.23
		c0.29-0.33,0.24-0.21,0.43-0.02c0.19,0.19,0.32,0.35,0.32,0.35s0.08,0.16,0.37-0.2s1.24-1.22,1.78-2.05
		c0.55-0.83,1.09-1.26,1.21-1.41c0.12-0.15,0.15-0.24,0.24-0.08c0.09,0.17,0.35,0.53,0.4,0.64c0.05,0.11,0.09,0.26,0.2,0.26
		c0.11,0,0.17-0.03,0.26-0.06c0.08-0.03,0.12-0.17,0.25,0.05c0.13,0.21,0.98,1.45,1.08,1.73c0.1,0.27,0.22,0.04,0.37-0.18
		c0.15-0.22,0.21-0.27,0.39-0.06c0.18,0.21,1.57,1.67,1.66,1.81c0.09,0.14,0.27,0.15,0.62-0.32c0.36-0.47,1.18-1.07,1.54-1.44
		c0.36-0.37,0.44-0.55,0.56-0.37c0.11,0.18,0.4,0.49,0.44,0.6c0.04,0.12,0.01,0.35,0.08,0.26c0.07-0.08,0.29-0.29,0.46-0.49
		c0.17-0.2,0.19-0.21,0.27-0.28c0.08-0.08,0.14-0.26,0.26-0.02c0.12,0.24,1.15,2.27,1.49,2.65c0.34,0.38,0.39,0.48,0.49,0.58
		c0.1,0.1,0.14,0.11,0.29-0.09c0.15-0.2,0.66-0.66,0.75-0.78c0.09-0.12,0.18-0.24,0.24-0.07c0.06,0.17,0.47,1.14,0.55,1.27
		c0.08,0.13,0.31,0.55,0.31,0.55s-0.8,0-1.69,0.03c-0.37-0.13-0.9-0.09-1.1-0.1c-0.26-0.01-0.24-0.08-0.26-0.21
		s-0.15-0.64-0.19-0.83c-0.03-0.19-0.2,0.06-0.26,0.23c-0.05,0.17-0.09,0.06-0.12-0.15c-0.03-0.21-0.07-0.33-0.08-0.51
		c0-0.18-0.09-0.12-0.19,0.02c-0.09,0.14-0.12,0.14-0.12-0.1s0.02-0.5,0.02-0.75c0-0.25-0.18,0.02-0.18,0.32s-0.06,0.4-0.08,0.63
		c-0.02,0.23-0.06,0.31-0.09,0.61c-0.03,0.31,0.11,0.12,0.2,0.02c0.08-0.1,0.07,0.11,0.11,0.27c0.04,0.17,0.22,0.37,0.24,0.54
		c0.02,0.18-0.57,0.24-0.75,0.15c-0.18-0.09-0.2-0.12-0.21-0.27c-0.01-0.15,0-0.21-0.02-0.45c-0.02-0.25-0.23,0.08-0.4,0.29
		c-0.17,0.21-0.22,0.33-0.43,0.46c-0.21,0.13,0.04-0.14,0.15-0.29c0.11-0.16-0.11-0.06-0.05-0.12c0.06-0.06,0.22-0.24,0.3-0.38
		c0.08-0.14,0.01-0.13,0.08-0.31c0.07-0.18-0.06-0.14-0.19-0.04c-0.13,0.11-0.21,0.2-0.37,0.39s-0.3,0.53-0.27,0.43
		s0.05-0.21-0.07-0.13c-0.11,0.07-0.3,0.35-0.49,0.56c-0.11,0-0.21,0-0.32,0c0.14-0.17,0.62-0.57,0.72-0.69
		c0.11-0.13,0.26-0.29,0.2-0.24c-0.06,0.05-0.06-0.07,0.04-0.32c0.11-0.25,0.01-0.32-0.2-0.17c-0.21,0.15-0.61,0.39-1.01,0.67
		c-0.37,0.24-0.67,0.49-1.03,0.72c-0.13,0-0.26-0.01-0.38-0.02c-0.05,0-0.09,0-0.14,0c0.07-0.31,0.26-1.01,0.33-1.33
		c0.08-0.4-0.58-0.04-0.75-0.27c-0.17-0.24-0.37-0.24-0.55-0.37c-0.17-0.14-0.08,0.25-0.41,0.01c-0.33-0.24-0.2,0.98-0.14,1.18
		c0.06,0.19,0.29,0.46,0.38,0.73c-1.48-0.09-3.09-0.19-3.68-0.1c0.03-0.06,0.07-0.14,0.11-0.19c0.09-0.13,0.18-0.25,0.34-0.41
		c0.17-0.17,0.32-0.47,0.43-0.66c0.11-0.19,0.38-0.56,0.38-0.66s-0.05-0.21-0.14-0.16c-0.09,0.05-0.18,0.12-0.31,0.24
		c-0.13,0.11-0.32,0.14-0.4,0.12c-0.08-0.02-0.05-0.06,0.04-0.2c0.09-0.14,0.02-0.15,0.06-0.24c0.04-0.08,0.07-0.18,0.06-0.32
		c-0.01-0.14-0.04-0.2-0.14-0.12c-0.09,0.08-0.09,0.06-0.3,0.24c-0.21,0.19-0.79,0.7-1.14,1.06c-0.28,0.29-0.73,0.85-0.96,0.98
		c-0.05-0.01-0.09-0.02-0.14-0.02c-0.03-0.17,0.42-0.58,0.66-0.78c0.26-0.22,0.37-0.58,0.61-0.79c0.25-0.21,0.08-0.24,0.2-0.42
		c0.13-0.17,0.15-0.3,0.27-0.49c0.13-0.19,0.02-0.27,0-0.43c-0.02-0.15-0.15-0.02-0.33,0.15c-0.17,0.17-0.3,0.29-0.46,0.38
		s-0.12-0.11-0.08-0.24c0.05-0.14,0.24-0.33,0.41-0.52c0.17-0.19-0.05-0.2,0.17-0.43c0.22-0.23,0.23-0.31,0.23-0.55
		c0-0.24-0.29,0.18-0.47,0.38c-0.18,0.2-0.22,0.26-0.36,0.53c-0.14,0.27-0.17,0.15-0.61,0.65c-0.44,0.5-1.33,1.05-1.66,1.43
		s-0.42,0.32-0.37,0.22c0.05-0.1,0.12-0.35,0.16-0.58c0.05-0.23-0.05-0.13-0.12-0.08c-0.06,0.06-0.29,0.43-0.55,0.78
		c-0.18,0.24-0.77,0.41-1.1,0.49C16.63,20.04,16.65,20.02,16.67,20L16.67,20z"/>
</g>
<g>
	<path style="fill-rule:evenodd;clip-rule:evenodd;fill:#2A009E;" d="M69.08,21.94c0,0.47,0.09,0.83,0.27,1.08s0.43,0.38,0.76,0.38
		c0.32,0,0.57-0.13,0.75-0.38c0.17-0.26,0.26-0.61,0.26-1.08s-0.09-0.82-0.27-1.07c-0.18-0.25-0.43-0.38-0.75-0.38
		c-0.32,0-0.58,0.12-0.75,0.38C69.17,21.12,69.08,21.48,69.08,21.94L69.08,21.94z M73.14,21.94c0,0.48-0.07,0.91-0.22,1.28
		c-0.15,0.37-0.35,0.69-0.62,0.95c-0.27,0.26-0.59,0.45-0.96,0.58c-0.37,0.13-0.79,0.2-1.24,0.2c-0.46,0-0.87-0.07-1.24-0.21
		c-0.37-0.14-0.69-0.34-0.96-0.6c-0.27-0.26-0.47-0.58-0.62-0.95c-0.15-0.37-0.22-0.79-0.22-1.25c0-0.46,0.08-0.87,0.22-1.24
		c0.15-0.37,0.35-0.69,0.62-0.95c0.27-0.26,0.58-0.46,0.96-0.6c0.37-0.14,0.79-0.21,1.24-0.21c0.46,0,0.87,0.07,1.24,0.21
		c0.37,0.14,0.69,0.35,0.96,0.6c0.27,0.26,0.47,0.57,0.62,0.95C73.07,21.08,73.14,21.5,73.14,21.94L73.14,21.94z M66.27,24.75
		c-0.09,0.02-0.21,0.04-0.38,0.06c-0.17,0.03-0.34,0.04-0.5,0.04c-0.17,0-0.32-0.01-0.46-0.03c-0.14-0.02-0.25-0.07-0.34-0.14
		c-0.09-0.07-0.16-0.17-0.21-0.29c-0.05-0.12-0.08-0.27-0.08-0.47V17.2c0.09-0.02,0.21-0.04,0.38-0.06c0.17-0.03,0.34-0.04,0.5-0.04
		s0.32,0.01,0.46,0.03c0.14,0.02,0.25,0.07,0.34,0.14s0.17,0.16,0.21,0.29c0.05,0.12,0.08,0.27,0.08,0.47V24.75z M60.49,18.95
		c0.42,0,0.8,0.04,1.14,0.13c0.34,0.08,0.64,0.21,0.88,0.39c0.24,0.17,0.43,0.4,0.56,0.66c0.13,0.27,0.2,0.58,0.2,0.95v2.6
		c0,0.2-0.06,0.37-0.17,0.49c-0.11,0.13-0.24,0.24-0.4,0.33c-0.5,0.3-1.21,0.46-2.12,0.46c-0.41,0-0.78-0.04-1.11-0.12
		c-0.33-0.08-0.61-0.19-0.85-0.35c-0.24-0.15-0.42-0.35-0.55-0.59c-0.13-0.24-0.19-0.52-0.19-0.84c0-0.53,0.16-0.95,0.47-1.23
		c0.32-0.29,0.81-0.46,1.47-0.53l1.52-0.16v-0.08c0-0.23-0.1-0.38-0.3-0.48c-0.2-0.09-0.48-0.14-0.85-0.14
		c-0.29,0-0.58,0.03-0.86,0.09c-0.28,0.06-0.53,0.14-0.75,0.23c-0.1-0.07-0.18-0.18-0.26-0.32c-0.07-0.14-0.1-0.29-0.1-0.45
		c0-0.2,0.05-0.36,0.14-0.48c0.1-0.12,0.24-0.22,0.45-0.31c0.23-0.09,0.49-0.15,0.79-0.18C59.93,18.97,60.21,18.95,60.49,18.95
		L60.49,18.95z M60.58,23.51c0.13,0,0.27-0.02,0.43-0.04c0.16-0.03,0.27-0.06,0.35-0.11v-0.93l-0.84,0.07
		c-0.21,0.02-0.4,0.06-0.53,0.14s-0.21,0.19-0.21,0.35c0,0.15,0.06,0.28,0.18,0.38C60.09,23.46,60.29,23.51,60.58,23.51L60.58,23.51
		z M57.13,24.75c-0.09,0.02-0.21,0.04-0.38,0.06c-0.17,0.03-0.34,0.04-0.5,0.04c-0.17,0-0.32-0.01-0.46-0.03
		c-0.14-0.02-0.25-0.07-0.34-0.14c-0.09-0.07-0.17-0.17-0.21-0.29c-0.05-0.12-0.08-0.27-0.08-0.47V17.2
		c0.08-0.02,0.21-0.04,0.38-0.06s0.34-0.04,0.5-0.04s0.32,0.01,0.46,0.03c0.14,0.02,0.25,0.07,0.34,0.14
		c0.09,0.07,0.16,0.16,0.21,0.29c0.05,0.12,0.08,0.27,0.08,0.47V24.75z M54.08,24.75c-0.09,0.02-0.21,0.04-0.38,0.06
		c-0.17,0.03-0.34,0.04-0.5,0.04c-0.17,0-0.32-0.01-0.46-0.03c-0.14-0.02-0.25-0.07-0.34-0.14c-0.09-0.07-0.17-0.17-0.21-0.29
		c-0.05-0.12-0.08-0.27-0.08-0.47v-4.72c0.08-0.02,0.21-0.04,0.38-0.06c0.17-0.03,0.34-0.04,0.5-0.04c0.17,0,0.32,0.01,0.46,0.03
		c0.14,0.02,0.25,0.07,0.34,0.14c0.09,0.07,0.16,0.16,0.21,0.29c0.05,0.12,0.08,0.27,0.08,0.47V24.75z M52.02,17.56
		c0-0.29,0.1-0.54,0.3-0.74c0.2-0.2,0.46-0.3,0.78-0.3c0.32,0,0.58,0.1,0.78,0.3c0.2,0.2,0.29,0.45,0.29,0.74
		c0,0.29-0.1,0.54-0.29,0.74c-0.2,0.2-0.46,0.3-0.78,0.3c-0.32,0-0.59-0.1-0.78-0.3C52.12,18.1,52.02,17.85,52.02,17.56L52.02,17.56
		z M51.06,24.75c-0.08,0.02-0.2,0.05-0.37,0.07c-0.17,0.02-0.34,0.03-0.52,0.03c-0.17,0-0.32-0.01-0.46-0.03
		c-0.14-0.02-0.25-0.07-0.34-0.14c-0.09-0.07-0.17-0.17-0.21-0.29c-0.05-0.12-0.08-0.27-0.08-0.47v-2.58c0-0.32-0.08-0.54-0.24-0.67
		c-0.16-0.13-0.35-0.19-0.59-0.19c-0.15,0-0.3,0.02-0.44,0.06c-0.14,0.04-0.25,0.08-0.34,0.14v4.06c-0.08,0.02-0.2,0.05-0.37,0.07
		c-0.17,0.02-0.34,0.03-0.52,0.03c-0.17,0-0.32-0.01-0.46-0.03c-0.14-0.02-0.25-0.07-0.34-0.14c-0.09-0.07-0.16-0.17-0.21-0.29
		c-0.05-0.12-0.08-0.27-0.08-0.47V17.2c0.09-0.02,0.21-0.04,0.38-0.06s0.34-0.04,0.5-0.04c0.17,0,0.32,0.01,0.46,0.03
		c0.14,0.02,0.25,0.07,0.34,0.14s0.17,0.16,0.21,0.29c0.05,0.12,0.08,0.27,0.08,0.47v1.14c0.1-0.04,0.25-0.08,0.46-0.13
		c0.21-0.05,0.43-0.08,0.68-0.08c0.76,0,1.36,0.19,1.79,0.58c0.43,0.38,0.64,0.95,0.64,1.71C51.06,21.24,51.06,24.75,51.06,24.75z
		 M42.92,18.97c-0.61,0-1.08,0.19-1.41,0.56c-0.33,0.37-0.49,0.9-0.49,1.59c0,0.69,0.18,1.23,0.54,1.6
		c0.36,0.37,0.85,0.56,1.47,0.56c0.33,0,0.6-0.04,0.83-0.13c0.23-0.09,0.44-0.19,0.65-0.3c0.14,0.11,0.24,0.24,0.32,0.4
		c0.08,0.15,0.11,0.34,0.11,0.54c0,0.32-0.18,0.6-0.54,0.83c-0.36,0.23-0.92,0.34-1.65,0.34c-0.53,0-1.04-0.08-1.51-0.23
		s-0.88-0.38-1.23-0.7c-0.35-0.31-0.63-0.71-0.83-1.19c-0.2-0.48-0.31-1.06-0.31-1.73c0-0.62,0.1-1.17,0.29-1.64
		c0.2-0.47,0.46-0.87,0.8-1.2c0.34-0.32,0.73-0.57,1.19-0.74c0.46-0.17,0.94-0.25,1.46-0.25c0.73,0,1.3,0.12,1.7,0.36
		c0.4,0.24,0.6,0.54,0.6,0.92c0,0.21-0.05,0.38-0.15,0.53s-0.22,0.27-0.36,0.36c-0.21-0.14-0.43-0.25-0.66-0.35
		C43.51,19.02,43.24,18.97,42.92,18.97L42.92,18.97z"/>
	<path style="fill-rule:evenodd;clip-rule:evenodd;fill:#FFFFFF;" d="M39.96,28.37h0.63v-0.81h1.08v-0.52h-1.08v-0.38h1.19v-0.55
		h-1.82V28.37z M43.12,28.41c0.7,0,1.23-0.53,1.23-1.18v0c0-0.65-0.52-1.18-1.22-1.18c-0.7,0-1.23,0.53-1.23,1.18v0.01
		C41.9,27.89,42.42,28.41,43.12,28.41L43.12,28.41z M43.13,27.84c-0.35,0-0.58-0.29-0.58-0.61v0c0-0.33,0.23-0.61,0.58-0.61
		c0.35,0,0.58,0.29,0.58,0.61v0.01C43.71,27.56,43.48,27.84,43.13,27.84L43.13,27.84z M45.74,28.41c0.7,0,1.23-0.53,1.23-1.18v0
		c0-0.65-0.52-1.18-1.22-1.18c-0.7,0-1.23,0.53-1.23,1.18v0.01C44.52,27.89,45.04,28.41,45.74,28.41L45.74,28.41z M45.74,27.84
		c-0.34,0-0.58-0.29-0.58-0.61v0c0-0.33,0.23-0.61,0.58-0.61s0.58,0.29,0.58,0.61v0.01C46.32,27.56,46.1,27.84,45.74,27.84
		L45.74,27.84z M47.21,28.37h0.86c0.82,0,1.3-0.49,1.3-1.14v-0.01c0-0.66-0.47-1.13-1.28-1.13h-0.88L47.21,28.37L47.21,28.37z
		 M47.84,27.81v-1.16h0.26c0.38,0,0.63,0.21,0.63,0.58v0.01c0,0.37-0.25,0.58-0.63,0.58L47.84,27.81L47.84,27.81z M51.61,28.41
		c0.5,0,0.79-0.22,1.01-0.51l-0.47-0.34c-0.14,0.17-0.27,0.27-0.51,0.27c-0.32,0-0.54-0.27-0.54-0.61v0c0-0.33,0.22-0.6,0.54-0.6
		c0.21,0,0.37,0.1,0.5,0.27l0.47-0.37c-0.2-0.28-0.5-0.47-0.96-0.47c-0.69,0-1.2,0.52-1.2,1.18v0.01
		C50.44,27.91,50.96,28.41,51.61,28.41L51.61,28.41z M53.88,28.41c0.7,0,1.23-0.53,1.23-1.18v0c0-0.65-0.52-1.18-1.22-1.18
		c-0.7,0-1.23,0.53-1.23,1.18v0.01C52.66,27.89,53.18,28.41,53.88,28.41L53.88,28.41z M53.89,27.84c-0.34,0-0.58-0.29-0.58-0.61v0
		c0-0.33,0.23-0.61,0.58-0.61c0.35,0,0.58,0.29,0.58,0.61v0.01C54.47,27.56,54.24,27.84,53.89,27.84L53.89,27.84z M55.36,28.37h0.62
		v-1.3l0.58,0.88h0.02l0.58-0.89v1.31h0.63v-2.27h-0.66l-0.54,0.88l-0.54-0.88h-0.67V28.37z M58.09,28.37h0.63v-0.65h0.31
		c0.56,0,0.98-0.28,0.98-0.82v-0.01c0-0.5-0.37-0.8-0.95-0.8h-0.98V28.37z M58.72,27.22v-0.6h0.3c0.23,0,0.37,0.1,0.37,0.3v0.01
		c0,0.18-0.14,0.29-0.36,0.29L58.72,27.22L58.72,27.22z M60.2,28.37h1.73v-0.55h-1.1v-1.72H60.2L60.2,28.37L60.2,28.37z
		 M62.12,28.37h1.85v-0.53h-1.22v-0.36h1.09v-0.5h-1.09v-0.35h1.21v-0.53h-1.83L62.12,28.37L62.12,28.37z M64.04,28.37h0.71
		l0.44-0.69l0.43,0.69h0.72l-0.78-1.16l0.75-1.11H65.6l-0.41,0.64l-0.4-0.64h-0.73l0.75,1.12L64.04,28.37z"/>
</g>
<path style="opacity:0.5;fill-rule:evenodd;clip-rule:evenodd;fill:#90E082;enable-background:new    ;" d="M26.36,11.23
	c0.05,0,0.1,0,0.15,0l-10.45,10.5c0-0.06,0-0.13,0-0.19l0,0l10.26-10.3C26.33,11.23,26.35,11.23,26.36,11.23L26.36,11.23z
	 M26.68,11.24c0.06,0,0.12,0,0.18,0.01L16.07,22.08c0-0.06,0-0.12-0.01-0.18L26.68,11.24z M27.03,11.26c0.06,0,0.12,0.01,0.18,0.01
	L16.1,22.42c0-0.06-0.01-0.12-0.02-0.18L27.03,11.26z M27.36,11.28c0.06,0.01,0.12,0.01,0.17,0.02l-11.4,11.45
	c-0.01-0.06-0.01-0.12-0.02-0.17L27.36,11.28z M27.69,11.32c0.06,0.01,0.11,0.02,0.17,0.02L16.17,23.07
	c-0.01-0.06-0.02-0.11-0.02-0.17L27.69,11.32z M28.01,11.37c0.06,0.01,0.11,0.02,0.17,0.03l-11.95,12
	c-0.01-0.05-0.02-0.11-0.03-0.17L28.01,11.37z M28.31,11.42c0.06,0.01,0.11,0.02,0.16,0.03L16.29,23.69
	c-0.01-0.05-0.02-0.11-0.03-0.16L28.31,11.42z M28.62,11.48c0.05,0.01,0.11,0.02,0.15,0.04L16.35,23.99
	c-0.01-0.05-0.02-0.1-0.04-0.15L28.62,11.48z M28.91,11.55c0.05,0.01,0.1,0.03,0.15,0.04L16.43,24.28c-0.01-0.05-0.03-0.1-0.04-0.15
	L28.91,11.55z M29.2,11.63c0.05,0.02,0.1,0.03,0.15,0.05L16.51,24.56c-0.02-0.05-0.03-0.1-0.05-0.15L29.2,11.63z M29.48,11.71
	c0.05,0.02,0.09,0.03,0.15,0.05L16.6,24.84c-0.02-0.05-0.03-0.1-0.05-0.15L29.48,11.71z M29.75,11.81c0.05,0.02,0.09,0.03,0.14,0.05
	l-13.2,13.25c-0.02-0.05-0.03-0.09-0.05-0.14L29.75,11.81z M30.02,11.9c0.05,0.02,0.09,0.03,0.14,0.05L16.79,25.37
	c-0.02-0.05-0.04-0.09-0.05-0.14L30.02,11.9z M30.28,12.01c0.05,0.02,0.09,0.04,0.14,0.06L16.9,25.63
	c-0.02-0.05-0.04-0.09-0.06-0.14L30.28,12.01z M30.53,12.11c0.05,0.02,0.09,0.04,0.14,0.06l-13.65,13.7
	c-0.02-0.04-0.04-0.09-0.06-0.13L30.53,12.11z M30.78,12.23c0.05,0.02,0.09,0.04,0.13,0.06L17.13,26.12
	c-0.02-0.05-0.04-0.09-0.06-0.13L30.78,12.23z M31.03,12.35c0.04,0.02,0.08,0.05,0.13,0.07l-13.9,13.95
	c-0.02-0.04-0.05-0.08-0.07-0.13L31.03,12.35z M31.26,12.47c0.04,0.02,0.08,0.05,0.12,0.07l-14,14.06
	c-0.02-0.04-0.05-0.08-0.07-0.12L31.26,12.47z M31.5,12.6c0.04,0.02,0.08,0.05,0.12,0.07l-14.1,14.15
	c-0.02-0.04-0.05-0.08-0.07-0.12L31.5,12.6z M31.73,12.74c0.04,0.02,0.08,0.05,0.12,0.08L17.66,27.06
	c-0.03-0.04-0.05-0.08-0.08-0.12L31.73,12.74z M31.95,12.88c0.04,0.03,0.08,0.05,0.12,0.08L17.8,27.28
	c-0.03-0.04-0.05-0.08-0.08-0.12L31.95,12.88z M32.17,13.03c0.04,0.03,0.08,0.05,0.11,0.08L17.95,27.49
	c-0.03-0.04-0.05-0.08-0.08-0.11L32.17,13.03z M32.38,13.18c0.04,0.03,0.08,0.05,0.11,0.08L18.1,27.7
	c-0.03-0.04-0.06-0.08-0.08-0.11L32.38,13.18z M32.59,13.33c0.04,0.03,0.07,0.06,0.11,0.08l-14.44,14.5
	c-0.03-0.04-0.06-0.08-0.08-0.11L32.59,13.33z M32.8,13.49c0.03,0.03,0.07,0.06,0.11,0.09L18.42,28.11
	c-0.03-0.03-0.06-0.07-0.09-0.11L32.8,13.49z M33,13.65c0.03,0.03,0.07,0.06,0.11,0.09L18.59,28.31c-0.03-0.03-0.06-0.07-0.09-0.1
	L33,13.65z M33.19,13.82c0.03,0.03,0.07,0.06,0.1,0.09L18.76,28.5c-0.03-0.03-0.06-0.07-0.09-0.1L33.19,13.82z M33.38,14
	c0.03,0.03,0.07,0.06,0.1,0.09l-14.54,14.6c-0.03-0.03-0.06-0.06-0.09-0.1L33.38,14z M33.57,14.17c0.03,0.03,0.06,0.06,0.09,0.09
	l-14.54,14.6c-0.03-0.03-0.06-0.06-0.09-0.09L33.57,14.17z M33.75,14.36c0.03,0.03,0.06,0.06,0.09,0.1L19.31,29.05
	c-0.03-0.03-0.07-0.06-0.1-0.09L33.75,14.36z M33.93,14.54c0.03,0.03,0.06,0.07,0.09,0.1L19.5,29.22c-0.03-0.03-0.07-0.06-0.1-0.09
	L33.93,14.54z M34.1,14.74c0.03,0.03,0.06,0.07,0.09,0.1l-14.5,14.56c-0.03-0.03-0.07-0.06-0.1-0.09L34.1,14.74z M34.27,14.93
	c0.03,0.03,0.06,0.07,0.09,0.11L19.89,29.56c-0.04-0.03-0.07-0.06-0.11-0.09L34.27,14.93z M34.43,15.13
	c0.03,0.03,0.06,0.07,0.08,0.11L20.1,29.72c-0.04-0.03-0.08-0.06-0.11-0.08L34.43,15.13z M34.59,15.33
	c0.03,0.04,0.06,0.08,0.08,0.11L20.3,29.87c-0.04-0.03-0.08-0.06-0.11-0.08L34.59,15.33z M34.74,15.55
	c0.03,0.04,0.05,0.08,0.08,0.11L20.51,30.02c-0.04-0.03-0.08-0.05-0.11-0.08L34.74,15.55z M34.89,15.76
	c0.03,0.04,0.05,0.08,0.08,0.12L20.73,30.17c-0.04-0.02-0.08-0.05-0.12-0.08L34.89,15.76z M35.04,15.98
	c0.03,0.04,0.05,0.08,0.08,0.12L20.96,30.31c-0.04-0.02-0.08-0.05-0.12-0.07L35.04,15.98z M35.18,16.2
	c0.02,0.04,0.05,0.08,0.07,0.12L21.19,30.45c-0.04-0.02-0.08-0.05-0.12-0.07L35.18,16.2z M35.32,16.43
	c0.02,0.04,0.05,0.08,0.07,0.12L21.42,30.58c-0.04-0.02-0.08-0.05-0.12-0.07L35.32,16.43z M35.44,16.67
	c0.02,0.04,0.05,0.08,0.07,0.13L21.66,30.7c-0.04-0.02-0.08-0.05-0.13-0.07L35.44,16.67z M35.57,16.91
	c0.02,0.04,0.04,0.08,0.06,0.13L21.9,30.83c-0.05-0.02-0.09-0.04-0.13-0.06L35.57,16.91z M35.69,17.15
	c0.02,0.05,0.04,0.09,0.06,0.13l-13.6,13.66c-0.05-0.02-0.09-0.04-0.13-0.06L35.69,17.15z M35.8,17.4c0.02,0.05,0.04,0.09,0.06,0.14
	L22.4,31.05c-0.05-0.02-0.09-0.04-0.14-0.06L35.8,17.4z M35.91,17.66c0.02,0.05,0.04,0.09,0.06,0.14L22.66,31.16
	c-0.05-0.02-0.09-0.03-0.14-0.05L35.91,17.66z M36.01,17.92c0.02,0.05,0.03,0.09,0.05,0.14L22.93,31.25
	c-0.05-0.02-0.09-0.03-0.14-0.05L36.01,17.92z M36.11,18.19c0.02,0.05,0.03,0.09,0.05,0.14L23.2,31.34
	c-0.05-0.02-0.1-0.03-0.15-0.05L36.11,18.19z M36.2,18.46c0.02,0.05,0.03,0.1,0.05,0.15L23.48,31.43c-0.05-0.01-0.1-0.03-0.15-0.05
	L36.2,18.46z M36.28,18.74c0.02,0.05,0.03,0.1,0.04,0.15L23.76,31.51c-0.05-0.01-0.1-0.03-0.15-0.04L36.28,18.74z M36.36,19.03
	c0.01,0.05,0.03,0.1,0.04,0.15L24.05,31.58c-0.05-0.01-0.1-0.02-0.15-0.04L36.36,19.03z M36.43,19.33c0.01,0.05,0.02,0.11,0.03,0.16
	L24.35,31.65c-0.05-0.01-0.11-0.02-0.16-0.03L36.43,19.33z M36.49,19.63c0.01,0.06,0.02,0.11,0.03,0.16L24.66,31.7
	c-0.05-0.01-0.11-0.02-0.16-0.03L36.49,19.63z M36.54,19.94c0.01,0.06,0.02,0.11,0.02,0.17L24.97,31.75
	c-0.06-0.01-0.11-0.02-0.17-0.02L36.54,19.94z M36.59,20.26c0.01,0.06,0.02,0.12,0.02,0.17L25.3,31.79
	c-0.06-0.01-0.11-0.01-0.17-0.02L36.59,20.26z M36.62,20.59c0,0.06,0.01,0.12,0.02,0.18l-11,11.05c-0.06,0-0.12-0.01-0.18-0.02
	L36.62,20.59z M36.65,20.93c0,0.06,0.01,0.12,0.01,0.18L25.98,31.83c-0.06,0-0.12,0-0.18-0.01L36.65,20.93z M36.66,21.28
	c0,0.06,0,0.13,0,0.19L26.34,31.84c-0.06,0-0.13,0-0.19,0L36.66,21.28z M36.66,21.64c0,0.07,0,0.13,0,0.2l-9.96,10
	c-0.07,0-0.13,0-0.2,0L36.66,21.64z M36.65,22.02c0,0.07-0.01,0.14-0.01,0.2l-9.55,9.59c-0.07,0-0.14,0.01-0.2,0.01L36.65,22.02z
	 M36.63,22.41c0,0.07-0.01,0.14-0.02,0.21l-9.12,9.16c-0.07,0.01-0.14,0.02-0.21,0.02L36.63,22.41z M36.59,22.82
	c-0.01,0.08-0.02,0.15-0.03,0.22l-8.65,8.69c-0.08,0.01-0.15,0.02-0.22,0.03L36.59,22.82z M36.53,23.24
	c-0.01,0.08-0.03,0.15-0.04,0.23l-8.14,8.17c-0.08,0.02-0.15,0.03-0.23,0.05L36.53,23.24z M36.44,23.7
	c-0.02,0.08-0.04,0.17-0.06,0.25l-7.57,7.61c-0.08,0.02-0.17,0.04-0.25,0.06L36.44,23.7z M36.33,24.17
	c-0.02,0.09-0.05,0.18-0.08,0.27l-6.94,6.97c-0.09,0.03-0.18,0.05-0.27,0.08L36.33,24.17z M36.17,24.69c-0.03,0.1-0.06,0.2-0.1,0.29
	l-6.23,6.26c-0.09,0.03-0.19,0.07-0.29,0.1L36.17,24.69z M35.98,25.25c-0.04,0.11-0.09,0.22-0.13,0.33L30.45,31
	c-0.11,0.05-0.22,0.09-0.33,0.14L35.98,25.25z M35.7,25.9c-0.06,0.13-0.12,0.26-0.19,0.38l-4.38,4.4c-0.12,0.07-0.25,0.13-0.38,0.19
	L35.7,25.9z M35.31,26.66c-0.1,0.17-0.2,0.34-0.31,0.5l-2.98,3c-0.16,0.11-0.33,0.21-0.5,0.31L35.31,26.66z M34.59,27.74
	c-0.52,0.81-1.2,1.48-2,2L34.59,27.74z M16.06,21.36c0-0.07,0-0.13,0-0.2l9.89-9.92c0.07,0,0.13,0,0.2,0L16.06,21.36z M16.07,20.98
	c0-0.07,0.01-0.14,0.01-0.21l9.48-9.51c0.07,0,0.14-0.01,0.21-0.01L16.07,20.98z M16.1,20.59c0.01-0.07,0.02-0.14,0.02-0.21
	l9.04-9.07c0.07-0.01,0.14-0.02,0.21-0.02L16.1,20.59z M16.15,20.18c0.01-0.08,0.02-0.15,0.03-0.23l8.56-8.59
	c0.08-0.01,0.15-0.02,0.22-0.03L16.15,20.18z M16.21,19.75c0.01-0.08,0.03-0.16,0.05-0.24l8.04-8.07c0.08-0.02,0.16-0.03,0.24-0.05
	L16.21,19.75z M16.3,19.29c0.02-0.08,0.04-0.17,0.06-0.25l7.46-7.49c0.08-0.02,0.17-0.04,0.25-0.06L16.3,19.29z M16.42,18.81
	c0.02-0.09,0.05-0.18,0.08-0.27l6.82-6.85c0.09-0.03,0.18-0.06,0.27-0.08L16.42,18.81z M16.58,18.28c0.03-0.1,0.07-0.2,0.1-0.29
	l6.09-6.11c0.1-0.04,0.2-0.07,0.3-0.11L16.58,18.28z M16.79,17.71c0.05-0.11,0.09-0.22,0.14-0.34l5.22-5.24
	c0.11-0.05,0.22-0.1,0.33-0.14L16.79,17.71z M17.08,17.05c0.06-0.14,0.13-0.27,0.2-0.4l4.16-4.17c0.13-0.07,0.26-0.14,0.4-0.2
	L17.08,17.05z M17.52,16.25c0.11-0.18,0.23-0.37,0.35-0.54l2.64-2.65c0.18-0.12,0.36-0.24,0.54-0.35L17.52,16.25z M18.39,15.01
	c0.4-0.55,0.87-1.02,1.42-1.42L18.39,15.01z"/>
<g>
	<path style="fill:#F6A23F;" d="M31.99,1.82c-0.07,0.13-0.64,1.02-1.41,2.55c-0.77,1.53-1.52,3.26-1.89,4
		c-0.37,0.74-0.38,0.58-1.19,1.59c-0.82,1.01-0.77,1.62-0.7,1.97c0.05,0.25,0.17,0.52,0.24,0.66c0.08,0.14,0.03,0.4,0.03,0.56
		c0,0.06-0.02,0.35,0.01,0.35c0.05,0,0.23-0.35,0.25-0.48c0.02-0.11,0.02-0.2,0.02-0.23c0.02-0.11,0.08-0.16,0.15-0.23
		c0.08-0.08,0.22-0.22,0.4-0.4c0.18-0.18,0.41-0.32,0.58-0.48c0.12-0.11,0.19-0.19,0.22-0.31c0.05-0.16,0.05-0.36,0.06-0.56
		c0.02-0.37-0.01-0.74,0-1.11c0.01-0.25,0.03-0.48,0.05-0.66c0.04-0.36,0.12-0.6,0.25-0.91c0.13-0.32,0.74-1.75,0.81-1.93
		c0.07-0.18,1.27-2.63,1.43-2.96C31.46,2.9,31.99,1.83,31.99,1.82L31.99,1.82z"/>
	<path style="fill:#F6A23F;" d="M26.46,15.02c-0.22-0.35-0.38-0.72-0.66-1.06c-0.42-0.54-0.88-1.13-0.78-1.72
		c0.1-0.59,0.18-0.96,0.4-1.51c0.22-0.54,1.4-3.36,1.52-3.66c0.12-0.3,0.73-1.63,0.74-1.63c0.01,0.01-1.61,3.94-1.76,4.42
		c-0.15,0.48-0.25,1.09-0.26,1.31c-0.01,0.22,0.12,0.4,0.35,0.62c0.23,0.23,0.61,0.72,0.77,1.09c0.16,0.37,0.07,0.97,0.03,1.24
		c-0.02,0.18-0.1,0.56-0.16,0.82C26.61,15.16,26.61,15.26,26.46,15.02L26.46,15.02z"/>
	<path style="fill:#BC7220;" d="M26.46,15.02c-0.22-0.35-0.38-0.72-0.66-1.06c-0.42-0.54-0.88-1.13-0.78-1.71
		c0.03,0.02,0.07,0.07,0.11,0.17c0.06,0.18,0.2,0.55,0.41,0.87c0.22,0.32,0.49,0.57,0.6,0.65c0.11,0.08,0.06-0.01-0.01-0.18
		c-0.06-0.16-0.2-0.57-0.34-0.74c-0.13-0.17-0.28-0.51-0.06-0.28c0.23,0.23,0.69,0.94,0.8,1.18c0.1,0.22,0.16,0.3,0.21,0.52
		c-0.03,0.17-0.07,0.37-0.1,0.52C26.61,15.16,26.61,15.26,26.46,15.02L26.46,15.02z"/>
	<path style="fill:#F6A23F;" d="M27,14.46c0.05-0.05,0.11-0.12,0.2-0.19c0.15-0.13,0.36-0.27,0.62-0.38
		c0.59-0.23,1.3-0.44,1.65-0.92c0.35-0.49,0.6-1.04,0.75-1.56c0.16-0.52,0.48-1.35,0.58-1.71c0.1-0.37,0.74-1.84,0.99-2.43
		c0.25-0.59,1.01-1.85,1.58-2.53c-0.57,0.33-1.5,2.06-1.69,2.48c-0.19,0.42-0.58,1.35-0.76,1.79c-0.17,0.43-0.52,1.35-0.59,1.57
		c-0.08,0.22-0.14,0.43-0.39,0.78c-0.25,0.36-0.72,0.45-1.11,0.56c-0.4,0.12-0.79,0.37-1.11,0.71c-0.32,0.34-0.32,0.36-0.5,0.8
		c-0.09,0.22-0.17,0.5-0.23,0.72c-0.03,0.1-0.05,0.19-0.06,0.26C26.9,14.53,26.9,14.57,27,14.46L27,14.46z"/>
	<path style="fill:#BC7220;" d="M27,14.46c0.05-0.05,0.11-0.12,0.2-0.19c0.15-0.13,0.36-0.27,0.62-0.38
		c0.59-0.23,1.3-0.44,1.65-0.92c0.07-0.1,0.14-0.2,0.2-0.31c-0.2,0.18-0.51,0.42-0.69,0.51c-0.3,0.14-0.85,0.39-0.99,0.42
		c-0.15,0.03-0.3,0.07-0.06-0.12s0.39-0.33,0.58-0.42c0.19-0.09,0.27-0.19,0.33-0.26s-0.23,0.06-0.48,0.2
		c-0.25,0.13-0.57,0.28-0.79,0.44c-0.17,0.12-0.32,0.18-0.43,0.28c-0.05,0.15-0.1,0.3-0.13,0.44c-0.03,0.1-0.05,0.19-0.06,0.26
		C26.9,14.53,26.9,14.57,27,14.46L27,14.46z"/>
	<path style="fill:#F6A23F;" d="M33.86,6.81c-0.62,0.44-1.21,1.3-1.55,1.77c-0.35,0.48-1.29,2.18-1.49,2.64
		c-0.14,0.32-0.34,0.76-0.5,1.11c-0.14,0.32-0.2,0.49-0.41,0.78c-0.15,0.21-0.31,0.39-0.49,0.52c-0.29,0.2-0.78,0.22-1.33,0.38
		c-0.56,0.17-0.83,0.39-1.11,0.75c-0.14,0.18-0.27,0.45-0.34,0.76c-0.04,0.15-0.06,0.31-0.08,0.44c-0.02,0.22,0.04,0.2,0.21,0.09
		c0.16-0.1,0.37-0.22,0.59-0.27c0.43-0.1,1.05-0.21,1.49-0.6c0.44-0.39,0.52-0.47,0.83-1.05c0.3-0.58,0.5-1.03,0.65-1.43
		c0.14-0.4,0.65-1.49,0.86-1.92c0.22-0.43,0.87-1.64,1.24-2.16C32.8,8.13,33.31,7.31,33.86,6.81L33.86,6.81z"/>
	<path style="fill:#F6A23F;" d="M26.11,16.73c-0.05-0.05-0.12-0.13-0.18-0.2c-0.16-0.19-0.39-0.46-0.56-0.64
		c-0.27-0.3-0.92-0.78-1.02-1.35c-0.1-0.57-0.07-0.73,0-1.25c0.07-0.53,0.32-1.72,0.41-2.13c0.09-0.42,0.42-1.55,0.47-1.9
		c0.05-0.35,0.21-0.94,0.22-0.94c0.01,0-0.22,1.39-0.35,1.96c-0.13,0.56-0.46,2.17-0.47,2.46c-0.01,0.3,0.12,0.63,0.42,0.87
		c0.3,0.24,0.89,0.87,1.05,1.07c0.16,0.2,0.3,0.43,0.32,0.88c0.02,0.44-0.14,1.03-0.17,1.16c-0.02,0.07-0.04,0.1-0.06,0.1
		C26.17,16.8,26.14,16.77,26.11,16.73L26.11,16.73z"/>
	<path style="fill:#BC7220;" d="M26.11,16.73c-0.05-0.05-0.12-0.13-0.18-0.2c-0.16-0.19-0.39-0.46-0.56-0.64
		c-0.27-0.3-0.92-0.78-1.02-1.35c-0.04-0.2-0.06-0.35-0.06-0.48c0.05,0.06,0.12,0.18,0.17,0.32c0.08,0.23,0.3,0.71,0.66,1.02
		c0.36,0.31,0.4,0.38,0.52,0.45c0.12,0.08,0.09-0.05-0.03-0.23c-0.12-0.18-0.43-0.57-0.55-0.7s-0.19-0.31,0.06-0.08
		c0.25,0.22,0.86,0.92,1.05,1.21c0.1,0.17,0.15,0.27,0.16,0.37c-0.03,0.14-0.06,0.24-0.07,0.29c-0.02,0.07-0.04,0.1-0.06,0.1
		C26.17,16.8,26.14,16.77,26.11,16.73L26.11,16.73z"/>
	<path style="fill:#F6A23F;" d="M26.23,17.47c0.01-0.12,0.04-0.3,0.12-0.5c0.14-0.37,0.58-0.64,0.84-0.76s0.72-0.28,1.25-0.35
		c0.52-0.08,0.7-0.14,0.85-0.37c0.14-0.23,0.82-1.54,1.1-2.13c0.13-0.28,0.31-0.68,0.58-1.15c0.29-0.52,0.69-1.11,1.3-1.68
		c-0.84,0.97-1.28,1.94-1.47,2.38s-0.74,1.54-0.85,1.85c-0.11,0.3-0.2,0.44-0.38,0.91c-0.18,0.48-0.42,0.87-0.77,1.19
		c-0.35,0.32-1.2,0.56-1.51,0.61c-0.3,0.05-0.84,0.22-0.95,0.32c-0.06,0.05-0.08,0.02-0.1-0.02C26.22,17.7,26.23,17.53,26.23,17.47
		L26.23,17.47z"/>
	<path style="fill:#BC7220;" d="M29.21,16.37c-0.12,0.18-0.25,0.33-0.41,0.48c-0.35,0.32-1.2,0.56-1.51,0.61
		c-0.3,0.05-0.84,0.22-0.95,0.32c-0.06,0.05-0.08,0.02-0.1-0.02c-0.02-0.06-0.01-0.21-0.01-0.28c0.06-0.11,0.22-0.25,0.42-0.37
		c0.17-0.1,0.46-0.23,0.64-0.3c0.22-0.1,0.36-0.12,0.36-0.12s0.42-0.09,0.1,0.06c-0.33,0.14-0.49,0.27-0.61,0.34
		c-0.12,0.07-0.35,0.29,0.06,0.18c0.41-0.11,0.98-0.26,1.17-0.35C28.55,16.82,28.91,16.62,29.21,16.37L29.21,16.37z"/>
	<path style="fill:#F6A23F;" d="M25.98,18.21c0.02-0.18,0.03-0.42,0.02-0.6c-0.02-0.32-0.25-0.84-0.65-1.19
		c-0.4-0.36-1.03-0.7-1.22-0.89s-0.31-0.48-0.3-0.69c0.01-0.21,0.18-1.72,0.23-2.07c0.06-0.35,0.36-1.95,0.38-2.37
		c0.02-0.42,0.08-1.58,0.01-2.2c-0.01-0.02-0.09,0.28-0.07,0.69c0.02,0.41-0.1,1.7-0.19,2.06c-0.06,0.26-0.22,1.31-0.33,2.03
		c-0.04,0.28-0.06,0.51-0.08,0.62c-0.06,0.4-0.12,0.89-0.16,1.22c-0.04,0.33-0.09,0.78-0.1,1.06c-0.01,0.28,0,0.56,0.28,0.93
		c0.28,0.37,0.79,0.76,1.1,0.95c0.31,0.2,0.76,0.62,0.86,0.72c0.06,0.07,0.1,0.07,0.13,0.04C25.96,18.45,25.97,18.28,25.98,18.21
		L25.98,18.21z"/>
	<path style="fill:#BC7220;" d="M23.54,16.17c0.02,0.19,0.09,0.4,0.28,0.64c0.28,0.37,0.79,0.76,1.1,0.95s0.76,0.62,0.86,0.72
		c0.06,0.07,0.1,0.07,0.13,0.04c0.02-0.03,0.04-0.08,0.06-0.14c-0.01-0.08-0.04-0.16-0.08-0.26c-0.08-0.19-0.16-0.26-0.34-0.51
		c-0.18-0.25-0.8-0.81-0.98-0.96c-0.18-0.16-0.01,0.09,0.1,0.22c0.11,0.14,0.31,0.39,0.45,0.62c0.14,0.22-0.01,0.19-0.11,0.1
		c-0.1-0.09-0.13-0.14-0.6-0.46c-0.48-0.32-0.7-0.81-0.8-0.92C23.56,16.17,23.54,16.16,23.54,16.17L23.54,16.17z"/>
	<path style="fill:#F6A23F;" d="M31.5,12.66c-0.4,0.38-0.88,1.21-1.11,1.72c-0.23,0.52-0.98,2.3-1.15,2.57
		c-0.17,0.28-0.71,0.51-1.22,0.58c-0.51,0.08-1.32,0.36-1.71,0.72c-0.39,0.37-0.4,0.99-0.4,0.99c0,0.11-0.01,0.18,0.01,0.21
		c0.06,0.1,0.28-0.08,0.4-0.13c0.4-0.17,0.7-0.2,0.97-0.25c0.39-0.07,0.85-0.24,1.23-0.48c0.2-0.13,0.43-0.35,0.61-0.64
		c0.23-0.37,0.39-0.84,0.46-1.13c0.1-0.38,0.66-1.64,0.78-1.97C30.48,14.53,31.33,12.84,31.5,12.66L31.5,12.66z"/>
	<path style="fill:#BC7220;" d="M25.93,19.08c-0.02,0.1-0.02,0.17-0.02,0.17c0,0.11-0.01,0.18,0.01,0.21
		c0.06,0.1,0.28-0.08,0.4-0.13c0.4-0.17,0.7-0.2,0.97-0.25c0.39-0.07,0.85-0.24,1.23-0.48c0.2-0.13,0.43-0.35,0.61-0.64
		c0.03-0.05,0.06-0.11,0.1-0.17c-0.03,0-0.1,0.06-0.2,0.15c-0.16,0.16-0.53,0.42-0.77,0.53c-0.24,0.11-0.94,0.22-1.17,0.25
		c-0.23,0.03-0.15-0.06,0.03-0.16s0.57-0.25,0.82-0.36c0.25-0.1,0.16-0.18-0.18-0.08c-0.34,0.1-0.72,0.26-1.12,0.48
		C26.34,18.77,26.06,18.98,25.93,19.08L25.93,19.08z"/>
	<path style="fill:#F6A23F;" d="M23.42,9.57c0.05,0.24,0.05,0.73,0.06,1.35c0,0.62-0.08,2.5-0.26,3.56
		c-0.18,1.06-0.23,2.41-0.25,3.05c-0.02,0.47,0.19,0.87,0.5,1.2c0.34,0.36,0.8,0.64,1.21,0.85c0.43,0.22,0.84,0.61,0.84,0.61
		c0.03,0.02,0.06,0.02,0.08,0.01c0.13-0.08,0.1-0.68,0.1-0.69c-0.01-0.24-0.04-0.42-0.09-0.57c-0.09-0.27-0.29-0.52-0.54-0.74
		c-0.37-0.33-0.84-0.6-1.17-0.84c-0.62-0.44-0.64-0.59-0.63-1.13c0-0.54,0.14-1.48,0.16-1.9c0.03-0.42,0.25-2.44,0.24-3.22
		C23.63,10.34,23.52,9.75,23.42,9.57L23.42,9.57z"/>
	<path style="fill:#BC7220;" d="M22.99,17.88c0.07,0.32,0.24,0.6,0.47,0.84c0.34,0.36,0.8,0.64,1.21,0.85
		c0.43,0.22,0.84,0.61,0.84,0.61c0.03,0.02,0.06,0.02,0.08,0.01c0.02-0.01,0.03-0.03,0.04-0.06c-0.04-0.29-0.18-0.62-0.42-0.89
		c-0.14-0.17-0.42-0.45-0.69-0.7c-0.24-0.22-0.48-0.41-0.59-0.48c-0.1-0.07-0.17-0.1-0.18-0.08c-0.02,0.04,0.38,0.4,0.43,0.45
		c0.18,0.18,0.38,0.37,0.45,0.48c0.11,0.17,0.01,0.17-0.15,0.1c-0.16-0.08-0.3-0.16-0.69-0.38c-0.38-0.22-0.65-0.71-0.74-0.77
		C23.02,17.83,23,17.85,22.99,17.88L22.99,17.88z"/>
	<path style="fill:#F6A23F;" d="M23.8,22.85c0.11,0.21,0.22,0.46,0.25,0.66c0.06,0.42,0.21,0.58,0.46,0.88
		c0.24,0.3,0.28,0.48,0.32,0.73s0.06,0.5,0.05,0.66c0,0.16,0.16,0.14,0.29,0.08c0.13-0.06,0.16-0.17,0.16-0.4
		c0.01-0.24,0.04-0.88,0.12-1.11c0.08-0.24,0.18-0.3,0.43-0.52c0.26-0.22,0.4-0.46,0.54-0.82c0.14-0.36,0.65-0.75,0.77-0.87
		c0.12-0.13,0.19-0.23-0.23-0.05c-0.42,0.18-1.21,0.53-1.37,0.74c-0.16,0.21-0.28,0.43-0.31,0.6c-0.02,0.17-0.11,0.19-0.2,0.08
		s-0.54-0.56-0.78-0.76c-0.24-0.2-0.65-0.46-0.78-0.47c-0.11-0.01-0.04,0.06,0.03,0.16C23.64,22.6,23.79,22.82,23.8,22.85
		L23.8,22.85z"/>
	<path style="fill:#BC7220;" d="M23.8,22.85c0.11,0.21,0.22,0.46,0.25,0.66c0.06,0.42,0.21,0.58,0.46,0.88
		c0.24,0.3,0.28,0.48,0.32,0.73c0,0.04,0.01,0.08,0.02,0.12c0.06-0.29,0.06-0.52-0.03-0.89c-0.11-0.44-0.26-1.03-0.71-1.54
		c-0.26-0.3-0.47-0.45-0.59-0.52l0,0c-0.11-0.01-0.04,0.06,0.03,0.16C23.64,22.6,23.79,22.82,23.8,22.85L23.8,22.85z"/>
	<path style="fill:#BC7220;" d="M25.46,24.3c0.08-0.2,0.18-0.27,0.42-0.47c0.26-0.22,0.4-0.46,0.54-0.82
		c0.14-0.36,0.65-0.75,0.77-0.87c0.08-0.08,0.13-0.15,0.05-0.14c-0.29,0.1-0.74,0.42-0.93,0.62c-0.24,0.24-0.55,0.7-0.7,1.03
		C25.5,23.87,25.47,24.15,25.46,24.3L25.46,24.3z"/>
	<path style="fill:#7A4710;" d="M25.16,23.54c0,0,0.16-1.55,0.22-1.87c0.05-0.32,0.28-2.14,0.36-2.54c0.08-0.4,1.03-4.76,1.2-5.33
		c0.16-0.56,0.38-0.93,0.45-0.95c0.07-0.02-0.36,1.21-0.51,1.77c-0.15,0.56-0.56,2.67-0.68,3.37c-0.13,0.7-0.58,3.18-0.65,3.96
		c-0.07,0.78-0.12,1.14-0.15,1.38C25.36,23.56,25.17,23.78,25.16,23.54L25.16,23.54z"/>
	<path style="fill:#F6A23F;" d="M25.68,20.69c0.11-0.33,0.27-0.58,0.54-0.78c0.49-0.38,1.21-0.61,1.69-0.7
		c0.46-0.08,0.73-0.25,0.9-0.41c0.08-0.07,0.11-0.1,0.12-0.1c0.02,0.01,0.01,0.08-0.02,0.24c-0.04,0.14-0.12,0.35-0.23,0.54
		c-0.1,0.18-0.21,0.36-0.3,0.45c-0.34,0.35-0.76,0.44-1.33,0.64c-0.38,0.13-0.7,0.24-1.04,0.44c-0.09,0.05-0.15,0.09-0.2,0.12
		c-0.11,0.07-0.15,0.08-0.17-0.06C25.63,20.93,25.67,20.74,25.68,20.69L25.68,20.69z"/>
	<path style="fill:#BC7220;" d="M28.52,19.76c-0.05,0.07-0.1,0.13-0.14,0.18c-0.34,0.35-0.76,0.44-1.33,0.64
		c-0.38,0.13-0.7,0.24-1.04,0.44c-0.09,0.05-0.15,0.09-0.2,0.12c-0.11,0.07-0.15,0.08-0.17-0.06c-0.01-0.11,0.01-0.26,0.03-0.34
		c0.13-0.09,0.36-0.25,0.59-0.35c0.34-0.14,0.56-0.24,0.76-0.32c0.2-0.08,0.24-0.02,0.04,0.08c-0.2,0.09-0.38,0.21-0.52,0.27
		c-0.14,0.06,0.07,0.08,0.29,0.03c0.22-0.05,0.72-0.19,1-0.34c0.29-0.15,0.41-0.18,0.59-0.3C28.47,19.76,28.5,19.75,28.52,19.76
		L28.52,19.76z"/>
	<path style="fill:#F6A23F;" d="M22.75,18.6c0,0,0,0.89,0.25,1.35c0.24,0.46,0.89,0.9,1.3,1.14c0.4,0.24,0.74,0.47,0.87,0.6
		c0.13,0.12,0.24,0.23,0.25,0.04c0.01-0.18,0.02-0.71-0.19-1.01c-0.22-0.3-0.48-0.67-1.02-1.02c-0.54-0.35-0.74-0.47-0.95-0.76
		c-0.15-0.2-0.28-0.37-0.35-0.51c-0.05-0.1-0.06-0.23-0.09-0.2C22.78,18.26,22.73,18.41,22.75,18.6L22.75,18.6z"/>
	<path style="fill:#BC7220;" d="M22.9,19.74c0.02,0.08,0.06,0.16,0.09,0.22c0.24,0.46,0.89,0.9,1.3,1.14
		c0.4,0.24,0.74,0.47,0.87,0.6c0.13,0.12,0.24,0.23,0.25,0.04c0-0.06,0-0.17,0-0.29c-0.05-0.08-0.12-0.17-0.19-0.24
		c-0.25-0.25-0.74-0.71-1.04-0.87c-0.2-0.11-0.34-0.12-0.3-0.07c0.06,0.07,0.39,0.29,0.54,0.42c0.09,0.07,0.12,0.14,0.11,0.17
		c0,0.01-0.04,0.01-0.07,0c-0.14-0.05-0.47-0.24-0.52-0.27c-0.34-0.16-0.7-0.54-0.88-0.75C22.97,19.73,22.93,19.72,22.9,19.74
		L22.9,19.74z"/>
	<path style="fill:#F6DB5A;" d="M26.92,11.53c0.03-0.43,0.23-0.89,0.49-1.17s0.3-0.3,0.39-0.35c0.1-0.05-0.08,0.24-0.21,0.42
		c-0.16,0.22-0.38,0.62-0.47,1.02c-0.03,0.14-0.05,0.3-0.04,0.44c0,0.1,0.02,0.21-0.01,0.22c-0.02,0-0.06,0.01-0.11-0.11
		C26.93,11.91,26.9,11.78,26.92,11.53L26.92,11.53z"/>
	<path style="fill:#F6DB5A;" d="M28.66,9.21c0,0-0.18,0.42-0.18,0.77c0,0.35,0.04,0.66,0.04,0.92c0,0.26-0.04,0.32-0.05,0.38
		c-0.01,0.06,0.17-0.06,0.18-0.32c0.01-0.26,0.01-0.73-0.02-0.99c-0.03-0.26,0.02-0.5,0.05-0.62C28.72,9.24,28.71,9.11,28.66,9.21
		L28.66,9.21z"/>
	<path style="fill:#BC7220;" d="M26.77,11.74c0.02-0.03,0.05-0.04,0.08,0.05c0.07,0.18,0.16,0.5,0.28,0.55
		c0.12,0.06,0.17-0.04,0.22-0.28c0.05-0.24,0.25-0.63,0.33-0.85c0.08-0.22,0.08,0,0,0.28c-0.08,0.28-0.22,0.61-0.24,0.74
		c-0.02,0.13,0.11,0,0.27-0.19c0.16-0.19,0.54-0.48,0.76-0.58c0.16-0.06,0.18-0.05,0.24-0.13c0,0.02-0.01,0.03-0.01,0.04
		c-0.04,0.12-0.11,0.2-0.22,0.31c-0.17,0.16-0.4,0.3-0.58,0.48c-0.18,0.18-0.32,0.32-0.4,0.4c-0.08,0.07-0.13,0.12-0.15,0.23
		c-0.01,0.04-0.01,0.12-0.02,0.23c-0.02,0.13-0.2,0.48-0.25,0.48c-0.04,0-0.01-0.3-0.01-0.35c0-0.16,0.05-0.42-0.03-0.56
		c-0.08-0.14-0.19-0.41-0.24-0.66C26.78,11.87,26.78,11.81,26.77,11.74L26.77,11.74z"/>
	<path style="fill:#F6DB5A;" d="M27.44,13.23c0,0,0.41-0.48,0.73-0.72c0.32-0.25,0.71-0.34,0.95-0.38c0.24-0.04,0.26,0.06-0.02,0.18
		c-0.28,0.12-0.95,0.46-1.17,0.65c-0.21,0.19-0.43,0.36-0.53,0.47C27.29,13.53,27.3,13.39,27.44,13.23L27.44,13.23z"/>
	<path style="fill:#F6DB5A;" d="M25.74,11.91c0.14,0.1,0.35,0.28,0.43,0.4c0.16,0.26,0.34,0.48,0.44,0.8
		c0.05,0.18,0.09,0.42,0.05,0.6c-0.03,0.12-0.07,0.11-0.09,0.02c-0.02-0.07-0.04-0.24-0.06-0.33c-0.06-0.2-0.24-0.5-0.32-0.64
		c-0.08-0.14-0.25-0.44-0.35-0.56c-0.06-0.07-0.1-0.13-0.14-0.2C25.6,11.83,25.55,11.76,25.74,11.91L25.74,11.91z"/>
	<path style="fill:#F6DB5A;" d="M27.03,15.02c0,0,0.34-0.4,0.75-0.65c0.41-0.24,0.79-0.32,0.97-0.34c0.18-0.02,0.5-0.03,0.2,0.08
		c-0.3,0.11-1.01,0.42-1.27,0.6c-0.26,0.18-0.56,0.37-0.64,0.44C26.96,15.21,26.92,15.13,27.03,15.02L27.03,15.02z"/>
	<path style="fill:#BC7220;" d="M26.61,15.66c0.1-0.1,0.29-0.27,0.45-0.36c0.22-0.12,0.51-0.28,0.7-0.36
		c0.19-0.08,0.56-0.19,0.68-0.17c0.12,0.02-0.48,0.31-0.66,0.38c-0.17,0.07-0.35,0.18-0.44,0.26c-0.08,0.08,0.06,0.08,0.34-0.02
		c0.28-0.1,0.74-0.28,1.06-0.45s0.71-0.53,0.82-0.69c0.04-0.06,0.08-0.11,0.12-0.14l-0.02,0.04c-0.3,0.58-0.38,0.67-0.83,1.05
		c-0.44,0.39-1.06,0.5-1.49,0.6c-0.22,0.05-0.44,0.17-0.59,0.27c-0.17,0.11-0.23,0.12-0.21-0.09
		C26.58,15.88,26.59,15.77,26.61,15.66L26.61,15.66z"/>
	<path style="fill:#F6DB5A;" d="M24.82,13.73c0,0,0.55,0.35,0.8,0.72c0.26,0.36,0.49,0.87,0.52,1.03c0.03,0.16,0,0.19-0.12-0.01
		c-0.12-0.2-0.53-0.89-0.72-1.09c-0.19-0.2-0.38-0.42-0.44-0.48C24.8,13.83,24.72,13.73,24.82,13.73L24.82,13.73z"/>
	<path style="fill:#F6DB5A;" d="M26.62,16.84c0,0,0.3-0.33,0.75-0.52c0.45-0.2,0.75-0.29,1.03-0.3c0.28-0.02,0.42,0.05,0.22,0.08
		c-0.14,0.02-0.52,0.14-0.94,0.3c-0.37,0.14-0.68,0.28-0.84,0.38c-0.08,0.05-0.18,0.13-0.24,0.16
		C26.55,16.96,26.53,16.93,26.62,16.84L26.62,16.84z"/>
	<path style="fill:#F6DB5A;" d="M24.18,15.81c0,0,0.56,0.29,0.86,0.59c0.3,0.29,0.5,0.64,0.56,0.77c0.06,0.13,0.1,0.36-0.04,0.18
		c-0.14-0.18-0.58-0.72-0.78-0.9c-0.2-0.18-0.5-0.43-0.58-0.49C24.12,15.89,24,15.76,24.18,15.81L24.18,15.81z"/>
	<path style="fill:#F6DB5A;" d="M26.32,18.52c0,0,0.28-0.35,0.66-0.52c0.38-0.18,0.64-0.28,1.03-0.35c0.4-0.06,0.6,0.01,0.36,0.08
		c-0.25,0.07-0.87,0.26-1.08,0.36c-0.21,0.11-0.62,0.31-0.78,0.41C26.36,18.6,26.15,18.69,26.32,18.52L26.32,18.52z"/>
	<path style="fill:#F6DB5A;" d="M26.05,20.29c0,0,0.27-0.35,0.81-0.59c0.54-0.24,0.86-0.28,1.07-0.28c0.22-0.01,0.08,0.1-0.26,0.17
		c-0.27,0.06-0.52,0.15-0.77,0.27c-0.21,0.11-0.42,0.23-0.62,0.37C26.07,20.37,25.9,20.48,26.05,20.29L26.05,20.29z"/>
	<path style="fill:#F6DB5A;" d="M23.53,19.5c0.12,0.06,0.46,0.21,0.74,0.43c0.36,0.28,0.59,0.52,0.7,0.73
		c0.02,0.04,0.04,0.07,0.05,0.1c0.02,0.05,0.02,0.08,0.01,0.09c-0.02,0.01-0.04,0-0.08-0.04c-0.14-0.17-0.47-0.47-0.77-0.71
		c-0.24-0.2-0.42-0.32-0.67-0.48c-0.08-0.05-0.12-0.1-0.11-0.12C23.4,19.45,23.5,19.48,23.53,19.5L23.53,19.5z"/>
	<path style="fill:#F6DB5A;" d="M23.76,17.55c0,0,0.43,0.21,0.72,0.42c0.28,0.21,0.46,0.41,0.6,0.61c0.14,0.2,0.19,0.3,0.22,0.36
		c0.02,0.07-0.04,0.1-0.15-0.01c-0.24-0.26-0.41-0.48-0.69-0.7c-0.23-0.19-0.46-0.38-0.7-0.57C23.68,17.6,23.63,17.5,23.76,17.55
		L23.76,17.55z"/>
	<path style="fill:#F6A23F;" d="M22.87,20.28c0,0,0.22,0.42,0.52,0.58c0.3,0.15,0.85,0.46,1.21,0.72c0.36,0.26,0.61,0.76,0.67,0.96
		s0,0.51-0.11,0.41c-0.11-0.09-0.74-0.5-0.96-0.62c-0.23-0.12-1.05-0.58-1.19-0.93c-0.14-0.35-0.16-0.72-0.16-0.83
		C22.83,20.47,22.81,20.18,22.87,20.28L22.87,20.28z"/>
	<path style="fill:#BC7220;" d="M25.26,22.88c-0.02,0.07-0.06,0.11-0.11,0.07c-0.11-0.09-0.74-0.5-0.96-0.62
		c-0.22-0.11-1-0.56-1.18-0.9c0.08,0.02,0.21,0.1,0.31,0.21c0.2,0.19,0.76,0.43,0.96,0.55c0.2,0.12,0.26,0.16,0.2,0.07
		c-0.03-0.04-0.1-0.09-0.17-0.14c-0.09-0.07-0.2-0.16-0.28-0.21c-0.1-0.07-0.17-0.13-0.14-0.15c0.01-0.01,0.03-0.01,0.08,0
		c0.18,0.06,0.77,0.51,0.99,0.7C25.11,22.59,25.22,22.74,25.26,22.88L25.26,22.88z"/>
	<path style="fill:#F6DB5A;" d="M23.39,21.16c0,0,0.19,0,0.54,0.19c0.34,0.18,0.68,0.45,0.8,0.6c0.12,0.15,0.19,0.39,0.12,0.34
		c-0.07-0.05-0.41-0.44-0.58-0.56c-0.17-0.12-0.54-0.34-0.66-0.39C23.48,21.29,23.17,21.17,23.39,21.16L23.39,21.16z"/>
	<path style="fill:#F6A23F;" d="M25.56,21.78c0.03-0.08,0.08-0.17,0.16-0.25c0.19-0.19,0.54-0.41,1.06-0.57
		c0.52-0.16,0.97-0.28,1.22-0.44c0.26-0.16,0.44-0.39,0.39-0.21c-0.06,0.18-0.3,0.64-0.38,0.78c-0.08,0.14-0.39,0.43-0.91,0.64
		c-0.53,0.21-1.04,0.34-1.23,0.44c-0.2,0.1-0.37,0.19-0.37-0.03C25.49,22.01,25.51,21.91,25.56,21.78L25.56,21.78z"/>
	<path style="fill:#BC7220;" d="M27.76,21.36c-0.16,0.12-0.38,0.26-0.66,0.38c-0.53,0.21-1.04,0.34-1.23,0.44
		c-0.19,0.1-0.36,0.19-0.37-0.02c0.04-0.06,0.14-0.18,0.36-0.32c0.3-0.19,0.94-0.4,1.09-0.44c0.16-0.03-0.07,0.1-0.3,0.2
		c-0.23,0.1-0.63,0.36-0.21,0.22c0.41-0.13,0.76-0.26,0.97-0.34C27.54,21.42,27.7,21.35,27.76,21.36L27.76,21.36z"/>
	<path style="fill:#F6DB5A;" d="M25.85,21.63c0,0,0.35-0.33,0.73-0.48c0.31-0.12,0.59-0.18,0.79-0.2c0.1-0.01,0.14,0,0.14,0.02
		c0,0.02,0,0.02-0.1,0.07c-0.08,0.04-0.16,0.06-0.24,0.09c-0.23,0.08-0.46,0.14-0.7,0.25c-0.17,0.08-0.29,0.15-0.44,0.24
		c-0.12,0.06-0.2,0.1-0.21,0.07C25.81,21.68,25.82,21.66,25.85,21.63L25.85,21.63z"/>
</g>
<g>
	<path style="fill-rule:evenodd;clip-rule:evenodd;fill:#56B518;" d="M27.38,30.79c-0.18,0-0.31-0.09-0.41-0.18
		c-0.03-0.02-0.06-0.05-0.09-0.06c-0.2-0.14-0.55-0.34-0.55-0.34l-1.57-1c-0.02,0-0.03,0.01-0.06,0.01
		c-0.24,0.04-0.87,0.15-1.67,0.15c-1.13,0-2.76-0.22-4.09-1.28c-2.56-2.03-3.31-4.03-3.55-4.68c-0.14-0.36-0.32-0.99-0.5-1.66
		c-0.26-0.92-0.56-1.96-0.72-2.21L14,19.32l0.27,0.01c0.03,0,3.02,0.12,6.02,1.24c3.49,1.29,5.25,3.19,5.24,5.63
		c0,1.07-0.35,1.88-0.4,1.93l-0.08,0.08l-0.1-0.06c-0.49-0.32-0.93-0.6-1.34-0.86c-0.57-0.36-1.11-0.7-1.66-1.09
		c-0.06-0.05-0.13-0.09-0.19-0.14c0.35,0.36,0.7,0.71,0.98,0.95c0.68,0.57,2.59,1.68,3.32,2.09l0.24,0.14
		c0.33,0.2,0.84,0.46,0.84,0.46l0.02,0.01l0.02,0.02c0.05-0.14,0.2-0.36,0.33-0.57c0.07-0.11,0.14-0.21,0.19-0.3
		c-0.6-0.47-0.96-0.91-1.05-1.3c-0.14-0.57-0.15-1.46,0.56-2.41c0.63-0.84,2.46-2.22,3.93-2.96c0.69-0.35,1.45-0.68,2.19-1.01
		c0.79-0.35,1.53-0.67,2.11-0.98l0.15-0.08l0.05,0.16c0.08,0.24,0.5,1.47,0.57,1.9c0.06,0.39,0.14,2.64-1.01,3.88
		c-1.09,1.17-2.85,1.89-3.56,2.15c-0.68,0.24-2.44,0.46-2.49,0.46l-0.08-0.01L29,28.58c-0.07-0.16,0.53-1.19,0.54-1.2
		c0.14-0.23,0.42-0.63,0.7-1c-0.78,0.87-1.4,1.83-1.53,2.06l-0.03,0.06c-0.67,1.31-0.82,1.71-0.83,1.82
		c-0.03,0.3-0.15,0.44-0.41,0.47C27.43,30.78,27.4,30.79,27.38,30.79z"/>
	<path style="fill:#FEFEFE;" d="M14.27,19.46c0,0,2.96,0.11,5.97,1.22c2.5,0.93,5.16,2.52,5.14,5.5c0,1.05-0.36,1.83-0.36,1.83
		c-1.16-0.77-2.07-1.27-3-1.94c-0.53-0.38-1.05-0.84-1.63-1.32c0.02,0.06,1.45,1.68,2.25,2.35c0.79,0.67,3.24,2.05,3.58,2.25
		c0.34,0.2,0.85,0.47,0.85,0.47s0.04,0.04,0.09,0.04c0.04,0,0.09-0.02,0.13-0.1c0.09-0.18,0.47-0.73,0.59-0.95
		c-0.02-0.02-0.95-0.66-1.1-1.3c-0.15-0.65-0.08-1.46,0.54-2.29c0.62-0.83,2.46-2.2,3.88-2.92c1.42-0.71,3.18-1.4,4.3-1.99
		c0,0,0.49,1.42,0.57,1.88c0.08,0.46,0.11,2.59-0.98,3.76c-1.09,1.17-2.85,1.88-3.51,2.12c-0.66,0.23-2.39,0.45-2.44,0.45l0,0
		c-0.03,0,0.27-0.64,0.53-1.07c0.26-0.43,1.03-1.46,1.33-1.76s0.31-0.44,0.31-0.49c-1.27,0.93-2.52,2.82-2.71,3.18
		c-0.18,0.36-0.85,1.66-0.88,1.93c-0.02,0.27-0.12,0.33-0.29,0.35c-0.02,0-0.04,0-0.05,0c-0.18,0-0.29-0.12-0.43-0.22
		c-0.2-0.14-0.55-0.34-0.55-0.34l-1.61-1.02c0,0,0,0,0,0c-0.06,0-0.78,0.16-1.76,0.16c-1.17,0-2.73-0.23-4.01-1.25
		c-2.39-1.9-3.18-3.75-3.51-4.62C15.19,22.48,14.56,19.9,14.27,19.46 M13.73,19.16l0.31,0.46c0.15,0.23,0.46,1.3,0.7,2.17
		c0.19,0.67,0.37,1.3,0.51,1.67c0.25,0.67,1.01,2.69,3.6,4.75c1.08,0.86,2.53,1.31,4.18,1.31c0.81,0,1.45-0.11,1.69-0.15h0
		l1.52,0.97c0.02,0.01,0.35,0.2,0.55,0.34c0.03,0.02,0.06,0.04,0.08,0.06c0.11,0.09,0.27,0.2,0.5,0.2c0.03,0,0.06,0,0.09-0.01
		c0.33-0.04,0.5-0.24,0.53-0.6c0.01-0.09,0.14-0.43,0.82-1.77l0.03-0.06c0-0.01,0.01-0.02,0.02-0.04c-0.02,0.11,0,0.15,0.01,0.17
		l0.06,0.14l0.14,0.03l0.03,0.01h0.03c0.09,0,1.85-0.22,2.54-0.47c0.89-0.32,2.55-1.04,3.62-2.19c1.19-1.28,1.13-3.51,1.05-4
		c-0.07-0.45-0.49-1.68-0.58-1.92l-0.11-0.31l-0.29,0.15c-0.57,0.3-1.31,0.63-2.09,0.97c-0.74,0.33-1.5,0.66-2.2,1.01
		c-1.48,0.74-3.34,2.14-3.98,3c-0.75,1-0.73,1.92-0.59,2.53c0.1,0.41,0.44,0.84,1,1.3c-0.04,0.06-0.08,0.13-0.12,0.19
		c-0.11,0.17-0.21,0.33-0.28,0.45c-0.17-0.09-0.5-0.26-0.73-0.41c-0.05-0.03-0.13-0.08-0.24-0.14c-0.24-0.14-0.62-0.36-1.04-0.6
		l0.14-0.14c0.09-0.09,0.44-0.95,0.44-2.03c0.02-2.51-1.78-4.46-5.33-5.77c-3.02-1.12-5.94-1.24-6.06-1.24L13.73,19.16L13.73,19.16z
		 M24.37,27.93c-0.24-0.15-0.48-0.3-0.7-0.44C23.9,27.62,24.13,27.77,24.37,27.93L24.37,27.93z"/>
</g>
</svg>
